# xmcd
#
# Track frame offsets:
#	150
#	18237
#	33241
#	52210
#	69952
#	85566
#	106095
#	117987
#	144634
#	156526
#	179000
#
# Disc length: 2619 seconds
#
# Revision: 0
# Processed by: cddbd v1.5.2PL0 Copyright (c) Steve Scherf et al.
# Submitted via: dBpowerAMP V4.0
#
DISCID=910a390b
DTITLE=Spencer Bohren - Solitaire
DYEAR=2002
DGENRE=Blues
TTITLE0=Down The Road
TTITLE1=Born In A Biscayne
TTITLE2=In-Between Friends
TTITLE3=Hard Time Killin' Floor
TTITLE4=C'mon Down
TTITLE5=Witch Doctor
TTITLE6=Broke Down Engine
TTITLE7=Been 'Round The World
TTITLE8=Long Gone Lonesome Blues
TTITLE9=Ne Expectations
TTITLE10=Dirt Road Blues
EXTD=
EXTT0=
EXTT1=
EXTT2=
EXTT3=
EXTT4=
EXTT5=
EXTT6=
EXTT7=
EXTT8=
EXTT9=
EXTT10=
PLAYORDER=
